<?xml version="1.0" encoding="UTF-8" standalone="no"?>
<!-- Created with Inkscape (http://www.inkscape.org/) -->
<svg
   xmlns:svg="http://www.w3.org/2000/svg"
   xmlns="http://www.w3.org/2000/svg"
   version="1.0"
   width="743.74011"
   height="359.64566"
   id="svg2272">
  <defs
     id="defs2274" />
  <g
     transform="translate(-9.866396,-339.77202)"
     id="layer1">
    <g
       transform="translate(17.667002,17.633223)"
       id="g10546">
      <path
         d="M 606.0447,406.91256 C 594.25854,404.50956 588.6515,394.66876 590.94007,380.47959 C 593.34307,365.37505 606.84564,346.37987 625.03979,340.65848 C 630.5324,338.82764 635.56719,339.85745 639.34336,343.51922 C 643.11946,347.29533 645.29366,353.36002 645.29366,359.768 C 645.29366,362.28544 644.83596,366.06165 644.14936,367.54919 C 642.31846,370.982 642.20406,371.09643 642.43286,374.30047 C 642.66176,377.84772 639.11456,385.6289 632.70654,393.52443 C 624.23876,404.05191 612.91042,408.17133 606.0447,406.91256"
         style="fill:#000000;fill-rule:nonzero;stroke:none"
         id="path2679" />
      <path
         d="M 537.15866,630.50599 C 539.56166,625.24225 542.0791,619.86407 542.0791,617.00342 C 542.30797,614.71485 544.71097,607.62027 547.57171,599.49578 C 550.89009,589.76942 558.21354,568.2568 560.84541,554.41102 C 561.64636,550.40595 566.9101,529.58002 566.5668,523.28638 C 565.99463,509.89824 561.18871,506.69429 542.19353,503.03252 C 518.39243,498.45538 515.64613,494.4504 504.77543,491.93296 C 477.77029,485.41054 443.785,477.28615 430.05356,466.07215 C 427.65056,464.12688 426.39189,462.41047 426.39189,461.03727 L 426.50632,460.46511 C 426.84953,458.97757 429.1381,457.03229 437.26258,456.0024 C 456.60097,453.48505 475.02399,451.42525 492.87483,449.36554 C 526.51682,445.70386 558.32798,442.15662 586.24849,436.20627 C 626.52733,427.62415 663.71666,413.20611 706.85626,389.51945 C 711.43336,387.00201 715.32396,386.42984 717.04036,388.03191 C 719.44336,390.20605 717.95576,395.69857 715.78166,401.30561 C 703.76666,431.858 656.50766,504.52015 643.92056,526.71928 C 632.47768,546.62984 611.76609,574.55044 594.02967,597.43608 C 576.06439,620.77954 534.29801,666.77976 527.66116,664.03355 C 527.20342,663.80468 528.1188,662.66035 529.26313,661.28724 C 530.5218,659.68527 532.35264,657.3967 532.92481,654.76483 C 533.49698,652.01852 537.15866,646.86921 539.79053,643.4364 C 542.4224,640.00349 544.36767,637.25728 544.59654,635.08314 L 543.33787,632.68013 C 541.96467,632.2224 540.36269,633.93881 537.84526,636.91398 C 536.47215,638.63038 533.38254,641.83442 533.03924,641.37669 C 532.58151,640.57566 535.44225,634.05324 537.15866,630.50599"
         style="fill:#ff0000;fill-rule:nonzero;stroke:none"
         id="path2681" />
      <path
         d="M 10.558527,605.21726 C 9.4141971,614.71485 9.6430671,622.26708 11.588427,627.64525 C 15.250107,637.94379 26.464107,643.4364 42.484117,643.4364 C 45.802497,643.4364 48.777667,643.32196 51.523967,642.97866 L 56.787627,642.29206 C 65.255407,640.91896 73.265367,639.43142 81.504187,643.0931 C 81.504187,643.0931 101.87248,567.68472 102.33021,565.73945 L 61.708067,565.73945 C 67.658417,568.37123 73.494237,572.3763 72.693197,579.12759 C 72.578767,580.50069 72.349897,581.75937 72.006697,583.13257 C 70.862357,588.39622 63.195697,614.71485 62.623537,616.20239 C 61.479207,619.74964 60.563827,628.56072 48.777667,627.30195 C 39.966677,625.92885 38.707907,622.26708 38.822347,614.71485 C 38.822347,612.54071 39.165647,609.33667 39.852247,605.21726 L 39.852247,605.21726 C 41.225347,597.66494 43.971657,586.79425 47.976637,572.49074 C 53.469247,552.80896 58.160827,539.07752 61.593637,531.63973 C 62.051367,530.60983 62.623537,529.46559 62.966837,528.55012 C 63.081267,528.55012 65.713047,520.08243 74.295267,520.3113 L 76.469407,520.3113 C 82.076357,520.3113 85.623697,524.88844 84.479367,530.49539 L 83.220687,537.36111 L 109.65367,537.36111 C 110.68347,533.35613 111.94224,529.46559 112.05667,526.14712 C 112.39997,519.73913 110.22583,516.07745 107.36509,511.95795 C 102.90238,505.77883 92.832617,502.57488 80.817687,502.57488 C 65.598617,502.57488 52.897077,507.95297 43.056277,518.9381 C 33.100957,530.03766 24.633267,548.23181 17.653117,572.83394 C 14.105777,585.42114 11.702767,596.1774 10.558527,605.21726"
         style="fill:#000000;fill-rule:evenodd;stroke:none"
         id="path2685" />
      <path
         d="M 252.00272,641.49112 L 224.53994,641.49112 C 225.91305,636.45625 243.30616,571.57527 244.90823,565.62502 C 246.05247,561.27674 245.59474,556.35629 237.12704,556.35629 C 234.60961,556.35629 230.83349,556.58516 226.94295,557.61497 L 204.51495,641.49112 L 177.16651,641.49112 L 204.17165,540.67958 C 211.95275,544.22683 219.9628,543.65466 229.00265,542.39599 C 235.75394,541.36609 243.19173,539.99298 253.60479,540.56515 C 261.84361,540.90845 268.2516,542.62486 271.3412,547.08757 C 274.20185,551.20698 274.54515,557.0428 272.48544,564.36625 L 252.00272,641.49112"
         style="fill:#000000;fill-rule:evenodd;stroke:none"
         id="path2687" />
      <path
         d="M 324.20715,541.48053 L 296.62984,541.48053 L 269.85357,641.49112 L 297.20201,641.49112 L 324.20715,541.48053"
         style="fill:#000000;fill-rule:evenodd;stroke:none"
         id="path2689" />
      <path
         d="M 416.77986,541.48053 L 389.66029,541.48053 L 366.889,626.04328 C 363.11288,627.18752 359.45111,627.41639 356.59046,627.41639 C 348.35155,627.41639 348.00834,622.26708 349.15258,618.03323 C 349.83918,615.40136 367.34673,549.49058 369.52087,541.48053 L 342.17243,541.48053 L 321.34641,619.292 C 319.2867,626.61536 319.63,632.45127 322.60517,636.57068 C 325.69478,641.03339 331.98833,642.63536 340.45602,643.0931 C 350.86899,643.66526 358.19244,642.29206 365.05816,641.26226 C 373.98358,639.88906 382.10797,639.43142 389.77472,642.97866 L 416.77986,541.48053"
         style="fill:#000000;fill-rule:evenodd;stroke:none"
         id="path2691" />
      <path
         d="M 483.14838,546.97314 C 479.25783,542.51042 472.04881,540.33628 461.86472,540.33628 C 452.36713,540.33628 444.70037,542.05269 437.60588,546.5154 C 430.8546,550.86368 425.36199,557.61497 423.41671,564.82398 C 421.70031,571.0031 421.24257,575.80912 422.61568,581.64493 C 423.53115,585.99321 427.30726,593.31666 433.71524,599.26701 C 435.88938,601.44115 437.94909,603.50085 439.66559,605.21726 L 439.66559,605.21726 C 442.06859,607.62027 444.01387,609.67997 445.27254,611.39638 C 447.56111,614.37155 448.36215,617.23229 447.67555,619.86407 C 446.98895,622.61038 445.61584,624.67008 443.67057,626.04328 C 440.92426,627.87412 437.83475,628.78949 434.63071,628.78949 C 432.571,628.67506 429.4814,627.64525 428.22272,625.69998 C 427.53613,624.67008 426.96396,622.95368 426.96396,621.12284 C 427.07839,620.09294 427.07839,619.6352 427.42169,618.37653 L 406.13803,618.37653 C 405.79473,620.09294 405.6803,622.26708 405.10813,624.21235 C 404.87927,629.47609 406.59567,633.36664 409.57084,636.68511 C 413.69026,641.26226 420.67041,643.32196 431.31224,643.32196 C 441.61086,643.32196 450.99402,640.91896 457.97417,636.34181 C 465.41196,631.30693 469.41694,625.92885 471.70551,617.9188 C 472.84985,613.68495 473.07871,609.10781 472.27768,605.21726 C 472.04881,604.07293 471.70551,603.04312 471.36231,602.12766 C 469.98911,598.69484 466.89959,592.97336 459.69058,585.99321 C 452.25269,578.78429 449.16318,574.32157 447.67555,571.6897 C 446.07357,569.2867 446.07357,565.62502 446.87461,562.87871 C 447.56111,560.24684 448.81988,558.30157 450.76515,557.0428 C 452.82486,555.55526 455.3423,554.86866 457.7453,554.86866 C 460.60595,554.86866 462.66566,556.12743 463.69556,558.30157 C 464.38215,559.44581 464.83989,560.47571 464.72545,562.42098 L 464.49659,564.13739 L 486.12355,564.13739 C 486.46685,562.30655 486.58128,560.81901 486.69572,558.87373 C 486.92458,553.95329 485.89468,550.06265 483.14838,546.97314"
         style="fill:#000000;fill-rule:evenodd;stroke:none"
         id="path2693" />
      <path
         d="M 320.88877,501.88828 C 312.99315,501.88828 304.63989,508.52513 302.58019,516.53509 C 300.52048,524.54514 305.09763,531.06756 313.22202,531.06756 C 321.23207,531.06756 329.47089,524.54514 331.5306,516.53509 C 333.81917,508.52513 329.01316,501.88828 320.88877,501.88828"
         style="fill:#000000;fill-rule:evenodd;stroke:none"
         id="path2695" />
      <path
         d="M 159.88774,579.58523 L 138.14635,579.58523 C 139.97719,572.26187 143.29566,564.02295 145.92753,560.24684 C 148.2161,557.27167 151.64891,554.86866 155.76833,554.86866 C 160.00217,554.86866 161.60424,557.50053 161.94754,561.04787 C 162.29075,564.82398 161.71867,571.57527 159.88774,579.58523 z M 181.28593,553.49555 C 178.19632,546.74427 170.75853,540.56515 159.88774,540.56515 C 147.07177,540.56515 136.08664,544.91343 127.27565,553.38112 C 118.46466,562.07768 111.59894,575.00808 106.79293,591.94356 C 105.41982,596.74957 104.50435,601.21228 103.93219,605.21726 C 102.44465,615.63022 103.47455,623.64027 105.99189,629.93383 C 108.85263,636.91398 115.94722,643.4364 131.85279,643.4364 C 142.60906,643.4364 148.78818,641.60556 155.08182,637.37171 C 160.34547,633.93881 166.63902,626.50092 169.04203,618.71983 L 148.55931,618.71983 C 147.64394,622.15264 145.4698,625.58555 143.86782,626.95865 C 142.15132,628.33185 140.20605,629.24723 137.91748,629.36166 C 131.05176,629.36166 129.56422,624.32678 129.44979,619.86407 C 129.33535,617.23229 130.02195,611.85411 131.39506,605.21726 C 132.19609,601.44115 133.2259,597.20721 134.37023,592.97336 L 176.82321,592.97336 C 177.16651,591.94356 180.02716,581.98823 180.02716,581.98823 C 183.00233,570.3165 184.14666,559.78911 181.28593,553.49555"
         style="fill:#000000;fill-rule:evenodd;stroke:none"
         id="path2697" />
      <path
         d="M 671.38336,617.00342 C 670.35356,616.43126 668.75156,616.08796 666.57736,616.08796 L 663.14446,616.08796 L 663.14446,624.21235 L 666.80616,624.21235 C 668.40826,624.21235 669.78136,624.09801 670.58236,623.75471 C 672.18436,623.06811 672.98536,621.92378 672.98536,620.20737 C 672.98536,618.6054 672.41326,617.46106 671.38336,617.00342 z M 667.03506,613.34165 C 669.89576,613.34165 671.95546,613.57052 673.32866,614.14268 C 675.73166,615.05815 676.87596,617.00342 676.87596,619.86407 C 676.87596,621.92378 676.07486,623.41141 674.58736,624.32678 C 673.78636,624.89895 672.75656,625.24225 671.26896,625.47111 C 673.09986,625.69998 674.47296,626.50092 675.27396,627.64525 C 676.07486,628.78949 676.41816,630.04826 676.41816,631.1925 L 676.41816,632.79457 L 676.53266,634.51097 L 676.76146,635.65521 L 676.87596,635.99851 L 673.09986,635.99851 L 673.09986,635.76965 L 672.98536,635.42635 L 672.98536,634.73984 L 672.98536,632.909 C 672.98536,630.39156 672.18436,628.67506 670.81126,627.75969 C 669.89576,627.30195 668.40826,627.07309 666.34856,627.07309 L 663.14446,627.07309 L 663.14446,635.99851 L 659.13956,635.99851 L 659.13956,613.34165 L 667.03506,613.34165 z M 654.90566,612.08298 C 651.35836,615.63022 649.64196,619.74964 649.64196,624.67008 C 649.64196,629.59053 651.35836,633.82437 654.79126,637.37171 C 658.33846,640.80452 662.45786,642.52093 667.49276,642.52093 C 672.41326,642.52093 676.64706,640.80452 680.07996,637.37171 C 683.51276,633.82437 685.22916,629.59053 685.22916,624.67008 C 685.22916,619.74964 683.51276,615.63022 680.07996,612.08298 C 676.53266,608.65007 672.41326,606.93367 667.49276,606.93367 C 662.57236,606.93367 658.33846,608.65007 654.90566,612.08298 z M 682.13966,639.31698 C 678.13456,643.32196 673.21426,645.38167 667.49276,645.38167 C 661.77136,645.38167 656.85096,643.32196 652.84596,639.31698 C 648.84096,635.312 646.78116,630.39156 646.78116,624.67008 C 646.78116,618.9487 648.84096,614.14268 652.84596,610.13771 C 656.96536,606.01829 661.77136,604.07293 667.49276,604.07293 C 673.21426,604.07293 678.13456,606.01829 682.13966,610.13771 C 686.14466,614.02825 688.20436,618.9487 688.20436,624.67008 C 688.20436,630.39156 686.14466,635.312 682.13966,639.31698"
         style="fill:#000000;fill-rule:nonzero;stroke:none"
         id="path2699" />
    </g>
  </g>
</svg>
